<mxfile host="app.diagrams.net" modified="2024-05-03T16:44:05.606Z" agent="Mozilla/5.0 (Windows NT 10.0; Win64; x64; rv:122.0) Gecko/20100101 Firefox/122.0" etag="dwvdpiVuLTiEyH35qkSJ" version="24.3.1" type="github" pages="2">
  <diagram name="Page-1" id="FroGnHOa9ntfNl5yrNbP">
    <mxGraphModel dx="939" dy="583" grid="1" gridSize="10" guides="1" tooltips="1" connect="1" arrows="1" fold="1" page="1" pageScale="1" pageWidth="850" pageHeight="1100" math="0" shadow="0">
      <root>
        <mxCell id="0" />
        <mxCell id="1" parent="0" />
        <mxCell id="H_20zZlquwgilv0S4cVw-3" value="" style="whiteSpace=wrap;html=1;aspect=fixed;fillColor=#fad7ac;strokeColor=#b46504;" vertex="1" parent="1">
          <mxGeometry x="90" y="5" width="490" height="490" as="geometry" />
        </mxCell>
        <mxCell id="H_20zZlquwgilv0S4cVw-4" value="&lt;b&gt;MAIN STACK&lt;/b&gt;" style="text;html=1;align=center;verticalAlign=middle;whiteSpace=wrap;rounded=0;fillColor=#bac8d3;strokeColor=#23445d;" vertex="1" parent="1">
          <mxGeometry x="245" y="30" width="60" height="30" as="geometry" />
        </mxCell>
        <mxCell id="s7YxVungP2fpLHbj8Vtj-1" value="RideShare *head = NULL" style="rounded=0;whiteSpace=wrap;html=1;" vertex="1" parent="1">
          <mxGeometry x="100" y="70" width="155" height="40" as="geometry" />
        </mxCell>
        <mxCell id="s7YxVungP2fpLHbj8Vtj-2" value="insertRideShare(&amp;amp;head);" style="rounded=0;whiteSpace=wrap;html=1;" vertex="1" parent="1">
          <mxGeometry x="100" y="130" width="155" height="40" as="geometry" />
        </mxCell>
        <mxCell id="s7YxVungP2fpLHbj8Vtj-3" value="" style="whiteSpace=wrap;html=1;aspect=fixed;fillColor=#fad7ac;strokeColor=#b46504;" vertex="1" parent="1">
          <mxGeometry x="600" y="10" width="490" height="490" as="geometry" />
        </mxCell>
        <mxCell id="s7YxVungP2fpLHbj8Vtj-4" value="&lt;b&gt;INSERT RIDE SHARE STACK&lt;br&gt;&lt;/b&gt;" style="text;html=1;align=center;verticalAlign=middle;whiteSpace=wrap;rounded=0;fillColor=#bac8d3;strokeColor=#23445d;" vertex="1" parent="1">
          <mxGeometry x="785" y="25" width="120" height="40" as="geometry" />
        </mxCell>
        <mxCell id="9rHwSf6MdKlfwykT_TFH-1" value="0x7EEF045" style="rounded=0;whiteSpace=wrap;html=1;" vertex="1" parent="1">
          <mxGeometry x="340" y="70" width="155" height="40" as="geometry" />
        </mxCell>
        <mxCell id="9rHwSf6MdKlfwykT_TFH-2" value="" style="endArrow=classic;html=1;rounded=0;" edge="1" parent="1">
          <mxGeometry relative="1" as="geometry">
            <mxPoint x="255" y="89.41" as="sourcePoint" />
            <mxPoint x="355" y="89.41" as="targetPoint" />
          </mxGeometry>
        </mxCell>
        <mxCell id="9rHwSf6MdKlfwykT_TFH-3" value="&lt;div&gt;head&lt;/div&gt;" style="edgeLabel;resizable=0;html=1;;align=center;verticalAlign=middle;" connectable="0" vertex="1" parent="9rHwSf6MdKlfwykT_TFH-2">
          <mxGeometry relative="1" as="geometry" />
        </mxCell>
        <mxCell id="9rHwSf6MdKlfwykT_TFH-4" value="" style="endArrow=classic;html=1;rounded=0;" edge="1" parent="1">
          <mxGeometry relative="1" as="geometry">
            <mxPoint x="255" y="149.41" as="sourcePoint" />
            <mxPoint x="355" y="149.41" as="targetPoint" />
          </mxGeometry>
        </mxCell>
        <mxCell id="9rHwSf6MdKlfwykT_TFH-5" value="0x7EEF045" style="edgeLabel;resizable=0;html=1;;align=center;verticalAlign=middle;" connectable="0" vertex="1" parent="9rHwSf6MdKlfwykT_TFH-4">
          <mxGeometry relative="1" as="geometry" />
        </mxCell>
        <mxCell id="9rHwSf6MdKlfwykT_TFH-9" value="0x7EEF045" style="rounded=0;whiteSpace=wrap;html=1;" vertex="1" parent="1">
          <mxGeometry x="340" y="130" width="155" height="40" as="geometry" />
        </mxCell>
      </root>
    </mxGraphModel>
  </diagram>
  <diagram id="3gSZskNXbTsgWCmT-nFv" name="Page-2">
    <mxGraphModel dx="751" dy="466" grid="1" gridSize="10" guides="1" tooltips="1" connect="1" arrows="1" fold="1" page="1" pageScale="1" pageWidth="850" pageHeight="1100" math="0" shadow="0">
      <root>
        <mxCell id="0" />
        <mxCell id="1" parent="0" />
        <mxCell id="SgCtURy5Z-4afaipDznI-1" value="" style="whiteSpace=wrap;html=1;aspect=fixed;fillColor=#e1d5e7;strokeColor=#9673a6;" vertex="1" parent="1">
          <mxGeometry x="250" y="230" width="300" height="300" as="geometry" />
        </mxCell>
        <mxCell id="SgCtURy5Z-4afaipDznI-2" value="&lt;b&gt;HEAP&lt;/b&gt;" style="text;html=1;align=center;verticalAlign=middle;whiteSpace=wrap;rounded=0;fillColor=#bac8d3;strokeColor=#23445d;" vertex="1" parent="1">
          <mxGeometry x="370" y="240" width="60" height="30" as="geometry" />
        </mxCell>
      </root>
    </mxGraphModel>
  </diagram>
</mxfile>
